<mxfile host="65bd71144e">
    <diagram id="-vF627NBtk1dunq5pKtV" name="Page-1">
        <mxGraphModel dx="662" dy="513" grid="1" gridSize="10" guides="1" tooltips="1" connect="1" arrows="1" fold="1" page="1" pageScale="1" pageWidth="850" pageHeight="1100" math="0" shadow="0">
            <root>
                <mxCell id="0"/>
                <mxCell id="1" parent="0"/>
                <mxCell id="2" value="INICIO" style="ellipse;whiteSpace=wrap;html=1;" vertex="1" parent="1">
                    <mxGeometry x="270" y="20" width="120" height="80" as="geometry"/>
                </mxCell>
                <mxCell id="3" value="float num1,num2, num3&lt;div&gt;float max&lt;/div&gt;" style="rounded=0;whiteSpace=wrap;html=1;" vertex="1" parent="1">
                    <mxGeometry x="200" y="150" width="260" height="80" as="geometry"/>
                </mxCell>
                <mxCell id="4" value="" style="endArrow=classic;html=1;entryX=0.5;entryY=0;entryDx=0;entryDy=0;entryPerimeter=0;exitX=0.5;exitY=1;exitDx=0;exitDy=0;" edge="1" parent="1" source="2" target="3">
                    <mxGeometry width="50" height="50" relative="1" as="geometry">
                        <mxPoint x="305" y="140" as="sourcePoint"/>
                        <mxPoint x="355" y="90" as="targetPoint"/>
                    </mxGeometry>
                </mxCell>
                <mxCell id="5" value="num1, num2, num3" style="shape=parallelogram;perimeter=parallelogramPerimeter;whiteSpace=wrap;html=1;fixedSize=1;" vertex="1" parent="1">
                    <mxGeometry x="220" y="290" width="220" height="90" as="geometry"/>
                </mxCell>
                <mxCell id="6" value="" style="endArrow=classic;html=1;entryX=0.5;entryY=0;entryDx=0;entryDy=0;exitX=0.5;exitY=1;exitDx=0;exitDy=0;" edge="1" parent="1" target="5">
                    <mxGeometry width="50" height="50" relative="1" as="geometry">
                        <mxPoint x="329.5" y="230" as="sourcePoint"/>
                        <mxPoint x="329.5" y="280" as="targetPoint"/>
                    </mxGeometry>
                </mxCell>
                <mxCell id="7" value="" style="endArrow=classic;html=1;entryX=0.5;entryY=0;entryDx=0;entryDy=0;exitX=0.5;exitY=1;exitDx=0;exitDy=0;" edge="1" parent="1" target="8">
                    <mxGeometry width="50" height="50" relative="1" as="geometry">
                        <mxPoint x="329.5" y="380" as="sourcePoint"/>
                        <mxPoint x="330" y="440" as="targetPoint"/>
                    </mxGeometry>
                </mxCell>
                <mxCell id="8" value="num1 &amp;gt; num2" style="rhombus;whiteSpace=wrap;html=1;" vertex="1" parent="1">
                    <mxGeometry x="260" y="430" width="140" height="140" as="geometry"/>
                </mxCell>
                <mxCell id="10" value="" style="endArrow=none;html=1;" edge="1" parent="1">
                    <mxGeometry width="50" height="50" relative="1" as="geometry">
                        <mxPoint x="400" y="500" as="sourcePoint"/>
                        <mxPoint x="500" y="500" as="targetPoint"/>
                    </mxGeometry>
                </mxCell>
                <mxCell id="12" value="" style="endArrow=classic;html=1;" edge="1" parent="1">
                    <mxGeometry width="50" height="50" relative="1" as="geometry">
                        <mxPoint x="499.5" y="500" as="sourcePoint"/>
                        <mxPoint x="500" y="540" as="targetPoint"/>
                    </mxGeometry>
                </mxCell>
                <mxCell id="VKza_G72q-BC_1IseTWO-12" value="si" style="text;html=1;align=center;verticalAlign=middle;resizable=0;points=[];autosize=1;strokeColor=none;fillColor=none;" vertex="1" parent="1">
                    <mxGeometry x="395" y="420" width="30" height="30" as="geometry"/>
                </mxCell>
                <mxCell id="VKza_G72q-BC_1IseTWO-13" value="no" style="text;html=1;align=center;verticalAlign=middle;resizable=0;points=[];autosize=1;strokeColor=none;fillColor=none;" vertex="1" parent="1">
                    <mxGeometry x="220" y="428" width="40" height="30" as="geometry"/>
                </mxCell>
                <mxCell id="VKza_G72q-BC_1IseTWO-14" value="max = num1" style="whiteSpace=wrap;html=1;" vertex="1" parent="1">
                    <mxGeometry x="590" y="620" width="120" height="60" as="geometry"/>
                </mxCell>
                <mxCell id="VKza_G72q-BC_1IseTWO-17" value="" style="endArrow=none;html=1;" edge="1" parent="1">
                    <mxGeometry width="50" height="50" relative="1" as="geometry">
                        <mxPoint x="170" y="500" as="sourcePoint"/>
                        <mxPoint x="260" y="500" as="targetPoint"/>
                    </mxGeometry>
                </mxCell>
                <mxCell id="VKza_G72q-BC_1IseTWO-19" value="" style="edgeStyle=none;orthogonalLoop=1;jettySize=auto;html=1;" edge="1" parent="1">
                    <mxGeometry width="100" relative="1" as="geometry">
                        <mxPoint x="164.5" y="499.71" as="sourcePoint"/>
                        <mxPoint x="164.5" y="560" as="targetPoint"/>
                        <Array as="points"/>
                    </mxGeometry>
                </mxCell>
                <mxCell id="VKza_G72q-BC_1IseTWO-21" value="num1 &amp;gt; num3" style="rhombus;whiteSpace=wrap;html=1;" vertex="1" parent="1">
                    <mxGeometry x="450" y="540" width="100" height="90" as="geometry"/>
                </mxCell>
                <mxCell id="VKza_G72q-BC_1IseTWO-22" value="si&lt;div&gt;&lt;br&gt;&lt;/div&gt;" style="text;html=1;align=center;verticalAlign=middle;resizable=0;points=[];autosize=1;strokeColor=none;fillColor=none;" vertex="1" parent="1">
                    <mxGeometry x="535" y="533" width="30" height="40" as="geometry"/>
                </mxCell>
                <mxCell id="VKza_G72q-BC_1IseTWO-23" value="no" style="text;html=1;align=center;verticalAlign=middle;resizable=0;points=[];autosize=1;strokeColor=none;fillColor=none;" vertex="1" parent="1">
                    <mxGeometry x="420" y="535" width="40" height="30" as="geometry"/>
                </mxCell>
                <mxCell id="VKza_G72q-BC_1IseTWO-24" value="" style="endArrow=none;html=1;" edge="1" parent="1">
                    <mxGeometry width="50" height="50" relative="1" as="geometry">
                        <mxPoint x="530" y="420" as="sourcePoint"/>
                        <mxPoint x="580" y="370" as="targetPoint"/>
                    </mxGeometry>
                </mxCell>
                <mxCell id="VKza_G72q-BC_1IseTWO-25" value="" style="endArrow=classic;html=1;" edge="1" parent="1">
                    <mxGeometry width="50" height="50" relative="1" as="geometry">
                        <mxPoint x="340" y="760" as="sourcePoint"/>
                        <mxPoint x="340" y="820" as="targetPoint"/>
                    </mxGeometry>
                </mxCell>
                <mxCell id="VKza_G72q-BC_1IseTWO-26" value="" style="endArrow=none;html=1;" edge="1" parent="1">
                    <mxGeometry width="50" height="50" relative="1" as="geometry">
                        <mxPoint x="550" y="585" as="sourcePoint"/>
                        <mxPoint x="650" y="585" as="targetPoint"/>
                    </mxGeometry>
                </mxCell>
                <mxCell id="VKza_G72q-BC_1IseTWO-27" value="" style="endArrow=classic;html=1;entryX=0.5;entryY=0;entryDx=0;entryDy=0;" edge="1" parent="1" target="VKza_G72q-BC_1IseTWO-14">
                    <mxGeometry width="50" height="50" relative="1" as="geometry">
                        <mxPoint x="650" y="590" as="sourcePoint"/>
                        <mxPoint x="700" y="540" as="targetPoint"/>
                        <Array as="points">
                            <mxPoint x="650" y="600"/>
                        </Array>
                    </mxGeometry>
                </mxCell>
                <mxCell id="VKza_G72q-BC_1IseTWO-28" value="" style="endArrow=none;html=1;entryX=0;entryY=0.5;entryDx=0;entryDy=0;" edge="1" parent="1" target="VKza_G72q-BC_1IseTWO-21">
                    <mxGeometry width="50" height="50" relative="1" as="geometry">
                        <mxPoint x="390" y="585" as="sourcePoint"/>
                        <mxPoint x="450" y="580" as="targetPoint"/>
                    </mxGeometry>
                </mxCell>
                <mxCell id="VKza_G72q-BC_1IseTWO-29" value="" style="endArrow=classic;html=1;" edge="1" parent="1">
                    <mxGeometry width="50" height="50" relative="1" as="geometry">
                        <mxPoint x="385" y="585" as="sourcePoint"/>
                        <mxPoint x="385" y="630" as="targetPoint"/>
                    </mxGeometry>
                </mxCell>
                <mxCell id="VKza_G72q-BC_1IseTWO-31" value="max = num3" style="whiteSpace=wrap;html=1;" vertex="1" parent="1">
                    <mxGeometry x="350" y="630" width="80" height="30" as="geometry"/>
                </mxCell>
                <mxCell id="VKza_G72q-BC_1IseTWO-32" value="num2 &amp;gt; num3" style="rhombus;whiteSpace=wrap;html=1;" vertex="1" parent="1">
                    <mxGeometry x="110" y="560" width="110" height="100" as="geometry"/>
                </mxCell>
                <mxCell id="VKza_G72q-BC_1IseTWO-33" value="si" style="text;html=1;align=center;verticalAlign=middle;resizable=0;points=[];autosize=1;strokeColor=none;fillColor=none;" vertex="1" parent="1">
                    <mxGeometry x="210" y="560" width="30" height="30" as="geometry"/>
                </mxCell>
                <mxCell id="VKza_G72q-BC_1IseTWO-34" value="no" style="text;html=1;align=center;verticalAlign=middle;resizable=0;points=[];autosize=1;strokeColor=none;fillColor=none;" vertex="1" parent="1">
                    <mxGeometry x="70" y="560" width="40" height="30" as="geometry"/>
                </mxCell>
                <mxCell id="VKza_G72q-BC_1IseTWO-35" value="" style="endArrow=none;html=1;" edge="1" parent="1">
                    <mxGeometry width="50" height="50" relative="1" as="geometry">
                        <mxPoint x="540" y="430" as="sourcePoint"/>
                        <mxPoint x="540" y="430" as="targetPoint"/>
                    </mxGeometry>
                </mxCell>
                <mxCell id="VKza_G72q-BC_1IseTWO-36" value="" style="endArrow=none;html=1;" edge="1" parent="1">
                    <mxGeometry width="50" height="50" relative="1" as="geometry">
                        <mxPoint x="220" y="610" as="sourcePoint"/>
                        <mxPoint x="280" y="610" as="targetPoint"/>
                    </mxGeometry>
                </mxCell>
                <mxCell id="VKza_G72q-BC_1IseTWO-37" value="" style="endArrow=classic;html=1;" edge="1" parent="1">
                    <mxGeometry width="50" height="50" relative="1" as="geometry">
                        <mxPoint x="280" y="610" as="sourcePoint"/>
                        <mxPoint x="280" y="640" as="targetPoint"/>
                    </mxGeometry>
                </mxCell>
                <mxCell id="VKza_G72q-BC_1IseTWO-38" value="max= num2" style="whiteSpace=wrap;html=1;" vertex="1" parent="1">
                    <mxGeometry x="230" y="640" width="90" height="30" as="geometry"/>
                </mxCell>
                <mxCell id="VKza_G72q-BC_1IseTWO-39" value="" style="endArrow=none;html=1;" edge="1" parent="1">
                    <mxGeometry width="50" height="50" relative="1" as="geometry">
                        <mxPoint x="50" y="609.5" as="sourcePoint"/>
                        <mxPoint x="110" y="609.5" as="targetPoint"/>
                    </mxGeometry>
                </mxCell>
                <mxCell id="VKza_G72q-BC_1IseTWO-40" value="" style="endArrow=classic;html=1;" edge="1" parent="1">
                    <mxGeometry width="50" height="50" relative="1" as="geometry">
                        <mxPoint x="50" y="610" as="sourcePoint"/>
                        <mxPoint x="50" y="650" as="targetPoint"/>
                    </mxGeometry>
                </mxCell>
                <mxCell id="VKza_G72q-BC_1IseTWO-41" value="max = num3" style="whiteSpace=wrap;html=1;" vertex="1" parent="1">
                    <mxGeometry x="10" y="650" width="110" height="40" as="geometry"/>
                </mxCell>
                <mxCell id="VKza_G72q-BC_1IseTWO-42" value="" style="endArrow=none;html=1;" edge="1" parent="1">
                    <mxGeometry width="50" height="50" relative="1" as="geometry">
                        <mxPoint x="280" y="760" as="sourcePoint"/>
                        <mxPoint x="280" y="670" as="targetPoint"/>
                    </mxGeometry>
                </mxCell>
                <mxCell id="VKza_G72q-BC_1IseTWO-43" value="" style="endArrow=none;html=1;" edge="1" parent="1">
                    <mxGeometry width="50" height="50" relative="1" as="geometry">
                        <mxPoint x="70" y="760" as="sourcePoint"/>
                        <mxPoint x="70" y="690" as="targetPoint"/>
                    </mxGeometry>
                </mxCell>
                <mxCell id="VKza_G72q-BC_1IseTWO-46" value="" style="endArrow=none;html=1;" edge="1" parent="1">
                    <mxGeometry width="50" height="50" relative="1" as="geometry">
                        <mxPoint x="400" y="760" as="sourcePoint"/>
                        <mxPoint x="400" y="660" as="targetPoint"/>
                    </mxGeometry>
                </mxCell>
                <mxCell id="VKza_G72q-BC_1IseTWO-49" value="" style="endArrow=none;html=1;" edge="1" parent="1">
                    <mxGeometry width="50" height="50" relative="1" as="geometry">
                        <mxPoint x="675" y="740" as="sourcePoint"/>
                        <mxPoint x="675" y="680" as="targetPoint"/>
                    </mxGeometry>
                </mxCell>
                <mxCell id="VKza_G72q-BC_1IseTWO-52" value="" style="endArrow=none;html=1;" edge="1" parent="1">
                    <mxGeometry width="50" height="50" relative="1" as="geometry">
                        <mxPoint x="70" y="760" as="sourcePoint"/>
                        <mxPoint x="670" y="760" as="targetPoint"/>
                    </mxGeometry>
                </mxCell>
                <mxCell id="VKza_G72q-BC_1IseTWO-53" value="max" style="shape=document;whiteSpace=wrap;html=1;boundedLbl=1;" vertex="1" parent="1">
                    <mxGeometry x="275" y="820" width="115" height="50" as="geometry"/>
                </mxCell>
                <mxCell id="VKza_G72q-BC_1IseTWO-54" value="" style="edgeStyle=none;orthogonalLoop=1;jettySize=auto;html=1;exitX=0.47;exitY=0.88;exitDx=0;exitDy=0;exitPerimeter=0;" edge="1" parent="1" source="VKza_G72q-BC_1IseTWO-53">
                    <mxGeometry width="100" relative="1" as="geometry">
                        <mxPoint x="280" y="900" as="sourcePoint"/>
                        <mxPoint x="330" y="910" as="targetPoint"/>
                        <Array as="points"/>
                    </mxGeometry>
                </mxCell>
                <mxCell id="VKza_G72q-BC_1IseTWO-55" value="FIN" style="ellipse;whiteSpace=wrap;html=1;" vertex="1" parent="1">
                    <mxGeometry x="272.5" y="910" width="120" height="80" as="geometry"/>
                </mxCell>
            </root>
        </mxGraphModel>
    </diagram>
</mxfile>